<svg id="Слой_1" xmlns="http://www.w3.org/2000/svg" width="14.054" height="15.887" viewBox="0 0 14.054 15.887"><style>.st0{fill:none;stroke:#e31e24;stroke-linecap:round;stroke-linejoin:round;stroke-miterlimit:10}</style><path class="st0" d="M1.748 5.247a1.248 1.248 0 1 1 .413-2.426m7.94-.294a1.594 1.594 0 0 1 1.457 2.725M2.156 2.883l.006-.065a2.275 2.275 0 0 1 4.283-.798"/><path class="st0" d="M11.58 5.247v8.148c0 1.096-.885 1.993-1.967 1.993H3.418c-1.082 0-1.967-.897-1.967-1.993V5.247m4.964-3.186a2.079 2.079 0 0 1 3.721.576m1.472 4.62h1.366c.319 0 .58.252.58.56v3.876c0 .308-.261.56-.58.56h-1.382"/></svg>